<svg width="95" height="95" viewBox="0 0 95 95" fill="none" xmlns="http://www.w3.org/2000/svg">
<path d="M23.1566 67.6876C26.5212 65.1147 30.2816 63.086 34.4378 61.6016C38.5941 60.1173 42.9482 59.3751 47.5003 59.3751C52.0524 59.3751 56.4066 60.1173 60.5628 61.6016C64.7191 63.086 68.4795 65.1147 71.8441 67.6876C74.1531 64.9827 75.9508 61.915 77.2373 58.4845C78.5238 55.0539 79.167 51.3924 79.167 47.5001C79.167 38.7258 76.0828 31.2544 69.9144 25.086C63.746 18.9176 56.2746 15.8334 47.5003 15.8334C38.726 15.8334 31.2547 18.9176 25.0863 25.086C18.9179 31.2544 15.8337 38.7258 15.8337 47.5001C15.8337 51.3924 16.4769 55.0539 17.7633 58.4845C19.0498 61.915 20.8475 64.9827 23.1566 67.6876ZM47.5003 51.4584C43.608 51.4584 40.3258 50.1225 37.654 47.4506C34.9821 44.7787 33.6462 41.4966 33.6462 37.6042C33.6462 33.7119 34.9821 30.4298 37.654 27.7579C40.3258 25.086 43.608 23.7501 47.5003 23.7501C51.3927 23.7501 54.6748 25.086 57.3467 27.7579C60.0186 30.4298 61.3545 33.7119 61.3545 37.6042C61.3545 41.4966 60.0186 44.7787 57.3467 47.4506C54.6748 50.1225 51.3927 51.4584 47.5003 51.4584ZM47.5003 87.0834C42.0246 87.0834 36.8788 86.0443 32.0628 83.9662C27.2469 81.8881 23.0576 79.0678 19.4951 75.5053C15.9326 71.9428 13.1123 67.7536 11.0342 62.9376C8.95605 58.1216 7.91699 52.9758 7.91699 47.5001C7.91699 42.0244 8.95605 36.8786 11.0342 32.0626C13.1123 27.2466 15.9326 23.0574 19.4951 19.4949C23.0576 15.9324 27.2469 13.1121 32.0628 11.0339C36.8788 8.95581 42.0246 7.91675 47.5003 7.91675C52.976 7.91675 58.1218 8.95581 62.9378 11.0339C67.7538 13.1121 71.943 15.9324 75.5055 19.4949C79.068 23.0574 81.8883 27.2466 83.9665 32.0626C86.0446 36.8786 87.0837 42.0244 87.0837 47.5001C87.0837 52.9758 86.0446 58.1216 83.9665 62.9376C81.8883 67.7536 79.068 71.9428 75.5055 75.5053C71.943 79.0678 67.7538 81.8881 62.9378 83.9662C58.1218 86.0443 52.976 87.0834 47.5003 87.0834ZM47.5003 79.1667C50.9969 79.1667 54.2955 78.6555 57.3962 77.6329C60.4968 76.6103 63.3337 75.1424 65.9066 73.2292C63.3337 71.3161 60.4968 69.8482 57.3962 68.8256C54.2955 67.803 50.9969 67.2917 47.5003 67.2917C44.0038 67.2917 40.7052 67.803 37.6045 68.8256C34.5038 69.8482 31.667 71.3161 29.0941 73.2292C31.667 75.1424 34.5038 76.6103 37.6045 77.6329C40.7052 78.6555 44.0038 79.1667 47.5003 79.1667ZM47.5003 43.5417C49.2156 43.5417 50.634 42.981 51.7555 41.8595C52.8771 40.7379 53.4378 39.3195 53.4378 37.6042C53.4378 35.889 52.8771 34.4706 51.7555 33.349C50.634 32.2275 49.2156 31.6667 47.5003 31.6667C45.785 31.6667 44.3666 32.2275 43.2451 33.349C42.1236 34.4706 41.5628 35.889 41.5628 37.6042C41.5628 39.3195 42.1236 40.7379 43.2451 41.8595C44.3666 42.981 45.785 43.5417 47.5003 43.5417Z" fill="#020202"/>
</svg>
