<svg width="95" height="95" viewBox="0 0 95 95" fill="none" xmlns="http://www.w3.org/2000/svg">
<path d="M23.1562 67.6875C26.5208 65.1145 30.2812 63.0859 34.4375 61.6015C38.5937 60.1171 42.9479 59.375 47.5 59.375C52.052 59.375 56.4062 60.1171 60.5625 61.6015C64.7187 63.0859 68.4791 65.1145 71.8437 67.6875C74.1527 64.9826 75.9505 61.9149 77.2369 58.4843C78.5234 55.0538 79.1666 51.3923 79.1666 47.5C79.1666 38.7257 76.0824 31.2543 69.914 25.0859C63.7456 18.9175 56.2743 15.8333 47.5 15.8333C38.7257 15.8333 31.2543 18.9175 25.0859 25.0859C18.9175 31.2543 15.8333 38.7257 15.8333 47.5C15.8333 51.3923 16.4765 55.0538 17.763 58.4843C19.0494 61.9149 20.8472 64.9826 23.1562 67.6875ZM47.5 51.4583C43.6076 51.4583 40.3255 50.1224 37.6536 47.4505C34.9817 44.7786 33.6458 41.4965 33.6458 37.6041C33.6458 33.7118 34.9817 30.4296 37.6536 27.7578C40.3255 25.0859 43.6076 23.75 47.5 23.75C51.3923 23.75 54.6744 25.0859 57.3463 27.7578C60.0182 30.4296 61.3541 33.7118 61.3541 37.6041C61.3541 41.4965 60.0182 44.7786 57.3463 47.4505C54.6744 50.1224 51.3923 51.4583 47.5 51.4583ZM47.5 87.0833C42.0243 87.0833 36.8784 86.0442 32.0625 83.9661C27.2465 81.888 23.0573 79.0677 19.4948 75.5052C15.9323 71.9427 13.1119 67.7534 11.0338 62.9375C8.95569 58.1215 7.91663 52.9757 7.91663 47.5C7.91663 42.0243 8.95569 36.8784 11.0338 32.0625C13.1119 27.2465 15.9323 23.0573 19.4948 19.4948C23.0573 15.9323 27.2465 13.1119 32.0625 11.0338C36.8784 8.95569 42.0243 7.91663 47.5 7.91663C52.9757 7.91663 58.1215 8.95569 62.9375 11.0338C67.7534 13.1119 71.9427 15.9323 75.5052 19.4948C79.0677 23.0573 81.888 27.2465 83.9661 32.0625C86.0442 36.8784 87.0833 42.0243 87.0833 47.5C87.0833 52.9757 86.0442 58.1215 83.9661 62.9375C81.888 67.7534 79.0677 71.9427 75.5052 75.5052C71.9427 79.0677 67.7534 81.888 62.9375 83.9661C58.1215 86.0442 52.9757 87.0833 47.5 87.0833ZM47.5 79.1666C50.9965 79.1666 54.2951 78.6553 57.3958 77.6328C60.4965 76.6102 63.3333 75.1423 65.9062 73.2291C63.3333 71.3159 60.4965 69.848 57.3958 68.8255C54.2951 67.8029 50.9965 67.2916 47.5 67.2916C44.0034 67.2916 40.7048 67.8029 37.6041 68.8255C34.5034 69.848 31.6666 71.3159 29.0937 73.2291C31.6666 75.1423 34.5034 76.6102 37.6041 77.6328C40.7048 78.6553 44.0034 79.1666 47.5 79.1666ZM47.5 43.5416C49.2152 43.5416 50.6336 42.9809 51.7552 41.8593C52.8767 40.7378 53.4375 39.3194 53.4375 37.6041C53.4375 35.8888 52.8767 34.4704 51.7552 33.3489C50.6336 32.2274 49.2152 31.6666 47.5 31.6666C45.7847 31.6666 44.3663 32.2274 43.2448 33.3489C42.1232 34.4704 41.5625 35.8888 41.5625 37.6041C41.5625 39.3194 42.1232 40.7378 43.2448 41.8593C44.3663 42.9809 45.7847 43.5416 47.5 43.5416Z" fill="#020202"/>
</svg>
