<svg width="95" height="95" viewBox="0 0 95 95" fill="none" xmlns="http://www.w3.org/2000/svg">
<path d="M23.1562 67.6875C26.5208 65.1146 30.2812 63.0859 34.4375 61.6016C38.5937 60.1172 42.9479 59.375 47.5 59.375C52.0521 59.375 56.4062 60.1172 60.5625 61.6016C64.7187 63.0859 68.4792 65.1146 71.8437 67.6875C74.1528 64.9826 75.9505 61.9149 77.237 58.4844C78.5234 55.0538 79.1667 51.3924 79.1667 47.5C79.1667 38.7257 76.0825 31.2543 69.9141 25.0859C63.7456 18.9175 56.2743 15.8333 47.5 15.8333C38.7257 15.8333 31.2543 18.9175 25.0859 25.0859C18.9175 31.2543 15.8333 38.7257 15.8333 47.5C15.8333 51.3924 16.4766 55.0538 17.763 58.4844C19.0495 61.9149 20.8472 64.9826 23.1562 67.6875ZM47.5 51.4583C43.6076 51.4583 40.3255 50.1224 37.6536 47.4505C34.9818 44.7786 33.6458 41.4965 33.6458 37.6042C33.6458 33.7118 34.9818 30.4297 37.6536 27.7578C40.3255 25.0859 43.6076 23.75 47.5 23.75C51.3923 23.75 54.6745 25.0859 57.3463 27.7578C60.0182 30.4297 61.3542 33.7118 61.3542 37.6042C61.3542 41.4965 60.0182 44.7786 57.3463 47.4505C54.6745 50.1224 51.3923 51.4583 47.5 51.4583ZM47.5 87.0833C42.0243 87.0833 36.8785 86.0443 32.0625 83.9661C27.2465 81.888 23.0573 79.0677 19.4948 75.5052C15.9323 71.9427 13.112 67.7535 11.0338 62.9375C8.95572 58.1215 7.91666 52.9757 7.91666 47.5C7.91666 42.0243 8.95572 36.8785 11.0338 32.0625C13.112 27.2465 15.9323 23.0573 19.4948 19.4948C23.0573 15.9323 27.2465 13.112 32.0625 11.0339C36.8785 8.95573 42.0243 7.91666 47.5 7.91666C52.9757 7.91666 58.1215 8.95573 62.9375 11.0339C67.7535 13.112 71.9427 15.9323 75.5052 19.4948C79.0677 23.0573 81.888 27.2465 83.9661 32.0625C86.0443 36.8785 87.0833 42.0243 87.0833 47.5C87.0833 52.9757 86.0443 58.1215 83.9661 62.9375C81.888 67.7535 79.0677 71.9427 75.5052 75.5052C71.9427 79.0677 67.7535 81.888 62.9375 83.9661C58.1215 86.0443 52.9757 87.0833 47.5 87.0833ZM47.5 79.1667C50.9965 79.1667 54.2951 78.6554 57.3958 77.6328C60.4965 76.6102 63.3333 75.1424 65.9062 73.2292C63.3333 71.316 60.4965 69.8481 57.3958 68.8255C54.2951 67.8029 50.9965 67.2917 47.5 67.2917C44.0035 67.2917 40.7048 67.8029 37.6042 68.8255C34.5035 69.8481 31.6667 71.316 29.0937 73.2292C31.6667 75.1424 34.5035 76.6102 37.6042 77.6328C40.7048 78.6554 44.0035 79.1667 47.5 79.1667ZM47.5 43.5417C49.2153 43.5417 50.6337 42.9809 51.7552 41.8594C52.8767 40.7378 53.4375 39.3194 53.4375 37.6042C53.4375 35.8889 52.8767 34.4705 51.7552 33.349C50.6337 32.2274 49.2153 31.6667 47.5 31.6667C45.7847 31.6667 44.3663 32.2274 43.2448 33.349C42.1233 34.4705 41.5625 35.8889 41.5625 37.6042C41.5625 39.3194 42.1233 40.7378 43.2448 41.8594C44.3663 42.9809 45.7847 43.5417 47.5 43.5417Z" fill="#020202"/>
</svg>
